<svg xmlns="http://www.w3.org/2000/svg" width="33.727" height="16.864" viewBox="0 0 33.727 16.864">
  <path id="Caminho_250" data-name="Caminho 250" d="M5.621,15.837a2.811,2.811,0,1,0-2.811-2.811A2.819,2.819,0,0,0,5.621,15.837Zm1.588,1.546a9.813,9.813,0,0,0-1.588-.141,9.767,9.767,0,0,0-3.907.815A2.826,2.826,0,0,0,0,20.657v2.206H6.324V20.6A6.322,6.322,0,0,1,7.209,17.383Zm20.9-1.546A2.811,2.811,0,1,0,25.3,13.026,2.819,2.819,0,0,0,28.106,15.837Zm5.621,4.82a2.826,2.826,0,0,0-1.714-2.6,9.554,9.554,0,0,0-5.495-.675A6.322,6.322,0,0,1,27.4,20.6v2.263h6.324ZM22.822,16.75a14.676,14.676,0,0,0-5.958-1.265,14.911,14.911,0,0,0-5.958,1.265A4.2,4.2,0,0,0,8.432,20.6v2.263H25.3V20.6A4.2,4.2,0,0,0,22.822,16.75Zm-11.481,3.3c.126-.323.183-.548,1.279-.97a11.837,11.837,0,0,1,8.488,0c1.082.422,1.138.646,1.279.97ZM16.864,8.811a1.405,1.405,0,1,1-1.405,1.405,1.409,1.409,0,0,1,1.405-1.405m0-2.811a4.216,4.216,0,1,0,4.216,4.216A4.21,4.21,0,0,0,16.864,6Z" transform="translate(0 -6)" fill="#e13157"/>
</svg>
