<svg xmlns="http://www.w3.org/2000/svg" width="26" height="26" viewBox="0 0 26 26">
  <path id="Caminho_247" data-name="Caminho 247" d="M26.111,5.889H23.222V3H8.778V5.889H5.889A2.9,2.9,0,0,0,3,8.778v1.444a7.21,7.21,0,0,0,6.341,7.136,7.236,7.236,0,0,0,5.214,4.276v4.478H8.778V29H23.222V26.111H17.444V21.633a7.236,7.236,0,0,0,5.214-4.276A7.21,7.21,0,0,0,29,10.222V8.778A2.9,2.9,0,0,0,26.111,5.889ZM5.889,10.222V8.778H8.778V14.3A4.348,4.348,0,0,1,5.889,10.222ZM16,18.889a4.346,4.346,0,0,1-4.333-4.333V5.889h8.667v8.667A4.346,4.346,0,0,1,16,18.889Zm10.111-8.667A4.348,4.348,0,0,1,23.222,14.3V8.778h2.889Z" transform="translate(-3 -3)" fill="#e13157"/>
</svg>
