<svg xmlns="http://www.w3.org/2000/svg" width="26" height="26" viewBox="0 0 26 26">
  <path id="Caminho_246" data-name="Caminho 246" d="M19.908,16.3a2.587,2.587,0,0,0,2.274-1.339l4.652-8.437A1.3,1.3,0,0,0,25.7,4.6H6.471L5.249,2H1V4.6H3.6l4.678,9.867L6.523,17.639A2.6,2.6,0,0,0,8.8,21.5H24.391V18.9H8.8l1.429-2.6ZM7.706,7.2H23.495l-3.587,6.5H10.785ZM8.8,22.8a2.6,2.6,0,1,0,2.6,2.6A2.6,2.6,0,0,0,8.8,22.8Zm13,0a2.6,2.6,0,1,0,2.6,2.6A2.6,2.6,0,0,0,21.792,22.8Z" transform="translate(-1 -2)" fill="#e13157"/>
</svg>
